<svg width="28" height="31" viewBox="0 0 28 31" fill="none" xmlns="http://www.w3.org/2000/svg">
<path d="M20.2174 14.9025L7.66202 2.2459C7.00916 1.58778 6.14783 1.17707 5.2255 1.08409L5.06734 1.06815C4.61866 1.02292 4.16595 1.03786 3.72124 1.11258V1.11258C3.2677 1.18878 2.83269 1.35014 2.43918 1.58815L2.23886 1.70932C2.01669 1.84369 1.81188 2.00485 1.62903 2.18918V2.18918C1.22609 2.59536 1 3.14432 1 3.71646V7.15358V26.2607C1 27.1652 1.42005 28.0184 2.13691 28.57V28.57C2.71911 29.018 3.43309 29.2609 4.16769 29.2609H4.3913V29.2609C5.27557 29.2609 6.13979 28.9974 6.87372 28.5042L6.94314 28.4576C7.9466 27.7832 8.8191 26.932 9.51809 25.9455L9.5913 25.8422" stroke="white" stroke-width="2"/>
<path d="M7.78261 15.3583L20.338 28.015C20.9908 28.6731 21.8522 29.0838 22.7745 29.1768L22.9327 29.1927C23.3813 29.2379 23.834 29.223 24.2788 29.1483V29.1483C24.7323 29.0721 25.1673 28.9107 25.5608 28.6727L25.7611 28.5515C25.9833 28.4172 26.1881 28.256 26.371 28.0717V28.0717C26.7739 27.6655 27 27.1165 27 26.5444V23.1073L27 4.00019C27 3.09568 26.5799 2.24246 25.8631 1.69087V1.69087C25.2809 1.24289 24.5669 0.999997 23.8323 0.999997H23.6087V0.999997C22.7244 0.999997 21.8602 1.26341 21.1263 1.75665L21.0569 1.8033C20.0534 2.47767 19.1809 3.32884 18.4819 4.31532L18.4087 4.41865" stroke="white" stroke-width="2"/>
</svg>
